# xmcd
#
# Track frame offsets:
#	150
#	20759
#	39935
#	66070
#	79793
#	96330
#	121009
#	137755
#	163044
#	185434
#
# Disc length: 2877 seconds
# Revision: 1
# Processed by: cddbd v1.5.2PL0 Copyright (c) Steve Scherf et al.
# Submitted via: dBpowerAMP V12.0
#
DISCID=7d0b3b0a
DTITLE=Joanna Pilarska and Na Drodze - Tam, Gdzie Zaczyna Się Mój Świat
DYEAR=2007
DGENRE=Blues
TTITLE0=Jest Taki Świat
TTITLE1=Stara Pieśń
TTITLE2=Za Ptaki Bez Gniazd
TTITLE3=Piosenka Dla Tych Którzy Się Rozstają
TTITLE4=Piosenka Do Kawy
TTITLE5=Tam, Gdzie Zaczyna Się Mój Świat
TTITLE6=Piosenka O Młodym Joe Boo
TTITLE7=Mruczanka Dla Szpileczki
TTITLE8=Na Drodze Do Nikąd
TTITLE9=Ja I Bobby
EXTD=
EXTT0=
EXTT1=
EXTT2=
EXTT3=
EXTT4=
EXTT5=
EXTT6=
EXTT7=
EXTT8=
EXTT9=
PLAYORDER=
